name C:\Users\u0101727\Documents\MyRepositories\upper-imu-dc\Results\main_tracking\Case_40\FLX01_linearAccelerations_groundFrame.mot
datacolumns 4
datarows 82
range 2.01000000 2.82000000
endheader 
time	radius_imu_x	radius_imu_y	radius_imu_z	
          2.01000000	         -2.58086536	          8.90158228	          5.03815769	
          2.02000000	         -2.21315988	          8.80508516	          4.47624905	
          2.03000000	         -1.85509477	          8.71954370	          3.89570802	
          2.04000000	         -1.50734716	          8.65432733	          3.32647019	
          2.05000000	         -1.17510852	          8.61936740	          2.79564176	
          2.06000000	         -0.86842357	          8.62142695	          2.32137228	
          2.07000000	         -0.60038882	          8.66116105	          1.90947521	
          2.08000000	         -0.38399154	          8.73191430	          1.55367760	
          2.09000000	         -0.22858648	          8.82061556	          1.23890581	
          2.10000000	         -0.13660943	          8.91076921	          0.94673082	
          2.11000000	         -0.10123318	          8.98712384	          0.66222340	
          2.12000000	         -0.10668835	          9.04072633	          0.38036935	
          2.13000000	         -0.13291666	          9.07232594	          0.10965132	
          2.14000000	         -0.16323271	          9.09213454	         -0.12950307	
          2.15000000	         -0.19009669	          9.11522264	         -0.31275926	
          2.16000000	         -0.21529724	          9.15479211	         -0.42282674	
          2.17000000	         -0.24566101	          9.21712459	         -0.45635906	
          2.18000000	         -0.28751678	          9.30044718	         -0.42349371	
          2.19000000	         -0.34240555	          9.39770995	         -0.34165326	
          2.20000000	         -0.40581637	          9.50140518	         -0.22750345	
          2.21000000	         -0.46933406	          9.60711086	         -0.09181442	
          2.22000000	         -0.52451326	          9.71315905	          0.05971013	
          2.23000000	         -0.56617628	          9.81727525	          0.22155840	
          2.24000000	         -0.59379187	          9.91367329	          0.38478030	
          2.25000000	         -0.61066493	          9.99272919	          0.53724307	
          2.26000000	         -0.62145656	         10.04268555	          0.66628164	
          2.27000000	         -0.62939082	         10.05219558	          0.76161735	
          2.28000000	         -0.63457935	         10.01302436	          0.81761022	
          2.29000000	         -0.63386021	          9.92242895	          0.83454652	
          2.30000000	         -0.62178712	          9.78469709	          0.81889849	
          2.31000000	         -0.59252391	          9.61143831	          0.78285740	
          2.32000000	         -0.54222668	          9.42019648	          0.74298022	
          2.33000000	         -0.47083585	          9.23098568	          0.71687962	
          2.34000000	         -0.38225636	          9.06144443	          0.71794842	
          2.35000000	         -0.28309671	          8.92301568	          0.75094114	
          2.36000000	         -0.18105409	          8.82024448	          0.81139676	
          2.37000000	         -0.08347374	          8.75245719	          0.88814477	
          2.38000000	          0.00410481	          8.71576806	          0.96631166	
          2.39000000	          0.07905118	          8.70481696	          1.03023358	
          2.40000000	          0.14166023	          8.71427193	          1.06641199	
          2.41000000	          0.19424524	          8.73946324	          1.06538298	
          2.42000000	          0.24017140	          8.77607888	          1.02181399	
          2.43000000	          0.28321373	          8.81993504	          0.93384071	
          2.44000000	          0.32688379	          8.86743484	          0.80276195	
          2.45000000	          0.37326044	          8.91637420	          0.63327043	
          2.46000000	          0.42145636	          8.96654226	          0.43395636	
          2.47000000	          0.46652945	          9.01969394	          0.21758977	
          2.48000000	          0.49977384	          9.07853587	          0.00027082	
          2.49000000	          0.51090431	          9.14487201	         -0.20118171	
          2.50000000	          0.49153324	          9.21821910	         -0.37248939	
          2.51000000	          0.43819963	          9.29617994	         -0.50375676	
          2.52000000	          0.35354421	          9.37575152	         -0.58968062	
          2.53000000	          0.24551718	          9.45373349	         -0.62952417	
          2.54000000	          0.12535562	          9.52623950	         -0.62719386	
          2.55000000	          0.00541782	          9.58891652	         -0.59054191	
          2.56000000	         -0.10223017	          9.63858257	         -0.52960509	
          2.57000000	         -0.18651033	          9.67503333	         -0.45461553	
          2.58000000	         -0.23817766	          9.70129128	         -0.37474792	
          2.59000000	         -0.25148117	          9.72196078	         -0.29779165	
          2.60000000	         -0.22654127	          9.74025179	         -0.23049819	
          2.61000000	         -0.17072911	          9.75534627	         -0.17895319	
          2.62000000	         -0.09736398	          9.76212772	         -0.14814379	
          2.63000000	         -0.02203409	          9.75362748	         -0.14067801	
          2.64000000	          0.04172915	          9.72460661	         -0.15564674	
          2.65000000	          0.08566090	          9.67433998	         -0.18852484	
          2.66000000	          0.10799049	          9.60768411	         -0.23202367	
          2.67000000	          0.11273072	          9.53459308	         -0.27713537	
          2.68000000	          0.10731289	          9.46854358	         -0.31384755	
          2.69000000	          0.09920449	          9.42389144	         -0.33197414	
          2.70000000	          0.09282754	          9.41209930	         -0.32297363	
          2.71000000	          0.08817335	          9.43766147	         -0.28262506	
          2.72000000	          0.08164665	          9.49548031	         -0.21312342	
          2.73000000	          0.06839180	          9.57144445	         -0.12301734	
          2.74000000	          0.04469898	          9.64675172	         -0.02452492	
          2.75000000	          0.00955401	          9.70441743	          0.07064073	
          2.76000000	         -0.03483250	          9.73466947	          0.15466499	
          2.77000000	         -0.08346862	          9.73643884	          0.22441650	
          2.78000000	         -0.12978715	          9.71477878	          0.27974652	
          2.79000000	         -0.16677836	          9.67686366	          0.32121851	
          2.80000000	         -0.18841188	          9.62854139	          0.34871332	
          2.81000000	         -0.19094718	          9.57319952	          0.36164337	
          2.82000000	         -0.17324506	          9.51342204	          0.36041401	
